<svg xmlns="http://www.w3.org/2000/svg" xmlns:xlink="http://www.w3.org/1999/xlink" width="500" zoomAndPan="magnify" viewBox="0 0 375 374.999991" height="500" preserveAspectRatio="xMidYMid meet" version="1.0"><defs><clipPath id="a2747b58ab"><path d="M 37.5 222 L 51 222 L 51 239.191406 L 37.5 239.191406 Z M 37.5 222 " clip-rule="nonzero"/></clipPath><clipPath id="a7de501e67"><path d="M 52 222 L 65 222 L 65 239.191406 L 52 239.191406 Z M 52 222 " clip-rule="nonzero"/></clipPath><clipPath id="4dc20b241a"><path d="M 67 222 L 78 222 L 78 239.191406 L 67 239.191406 Z M 67 222 " clip-rule="nonzero"/></clipPath><clipPath id="83f8ae3b42"><path d="M 78 222 L 92 222 L 92 239.191406 L 78 239.191406 Z M 78 222 " clip-rule="nonzero"/></clipPath><clipPath id="f618bdb4f9"><path d="M 93 222 L 106 222 L 106 239.191406 L 93 239.191406 Z M 93 222 " clip-rule="nonzero"/></clipPath><clipPath id="1976999746"><path d="M 113 222 L 126 222 L 126 239.191406 L 113 239.191406 Z M 113 222 " clip-rule="nonzero"/></clipPath><clipPath id="e43e43d183"><path d="M 128 222 L 139 222 L 139 239.191406 L 128 239.191406 Z M 128 222 " clip-rule="nonzero"/></clipPath><clipPath id="a25ff393a7"><path d="M 145 222 L 165 222 L 165 239.191406 L 145 239.191406 Z M 145 222 " clip-rule="nonzero"/></clipPath><clipPath id="5ff731de79"><path d="M 166 222 L 179 222 L 179 239.191406 L 166 239.191406 Z M 166 222 " clip-rule="nonzero"/></clipPath><clipPath id="b8f85c8fac"><path d="M 180 222 L 194 222 L 194 239.191406 L 180 239.191406 Z M 180 222 " clip-rule="nonzero"/></clipPath><clipPath id="d17233c171"><path d="M 192 222 L 204 222 L 204 239.191406 L 192 239.191406 Z M 192 222 " clip-rule="nonzero"/></clipPath><clipPath id="c4811533a9"><path d="M 208 222 L 221 222 L 221 239.191406 L 208 239.191406 Z M 208 222 " clip-rule="nonzero"/></clipPath><clipPath id="9f6eab3cd4"><path d="M 228 222 L 240 222 L 240 239.191406 L 228 239.191406 Z M 228 222 " clip-rule="nonzero"/></clipPath><clipPath id="139dd4a9d3"><path d="M 241 222 L 255 222 L 255 239.191406 L 241 239.191406 Z M 241 222 " clip-rule="nonzero"/></clipPath><clipPath id="aab370f2f4"><path d="M 256 222 L 269 222 L 269 239.191406 L 256 239.191406 Z M 256 222 " clip-rule="nonzero"/></clipPath><clipPath id="b3eb03cecf"><path d="M 270 222 L 282 222 L 282 239.191406 L 270 239.191406 Z M 270 222 " clip-rule="nonzero"/></clipPath><clipPath id="92f427b43c"><path d="M 284 222 L 288 222 L 288 239.191406 L 284 239.191406 Z M 284 222 " clip-rule="nonzero"/></clipPath><clipPath id="4dff595b84"><path d="M 290 222 L 302 222 L 302 239.191406 L 290 239.191406 Z M 290 222 " clip-rule="nonzero"/></clipPath><clipPath id="3b14150ff1"><path d="M 304 222 L 314 222 L 314 239.191406 L 304 239.191406 Z M 304 222 " clip-rule="nonzero"/></clipPath><clipPath id="225c50c1e1"><path d="M 315 222 L 326 222 L 326 239.191406 L 315 239.191406 Z M 315 222 " clip-rule="nonzero"/></clipPath><clipPath id="4369b1f8b3"><path d="M 333 222 L 340.5 222 L 340.5 231 L 333 231 Z M 333 222 " clip-rule="nonzero"/></clipPath><clipPath id="6b918ba68a"><path d="M 38 117.691406 L 325 117.691406 L 325 199 L 38 199 Z M 38 117.691406 " clip-rule="nonzero"/></clipPath></defs><g clip-path="url(#a2747b58ab)"><path fill="#ffffff" d="M 44.378906 226.140625 L 42.136719 233.039062 L 46.429688 233.039062 Z M 48.210938 239.046875 L 47.042969 235.152344 L 41.425781 235.152344 L 40.175781 239.046875 L 37.5 239.046875 L 43.007812 222.828125 L 45.738281 222.828125 L 50.921875 239.046875 L 48.210938 239.046875 " fill-opacity="1" fill-rule="nonzero"/></g><g clip-path="url(#a7de501e67)"><path fill="#ffffff" d="M 61.753906 239.046875 L 61.753906 232.003906 L 55.132812 232.003906 L 55.132812 239.046875 L 52.628906 239.046875 L 52.628906 222.828125 L 55.132812 222.828125 L 55.132812 229.890625 L 61.753906 229.890625 L 61.753906 222.828125 L 64.265625 222.828125 L 64.265625 239.046875 L 61.753906 239.046875 " fill-opacity="1" fill-rule="nonzero"/></g><g clip-path="url(#4dc20b241a)"><path fill="#ffffff" d="M 67.441406 239.046875 L 67.441406 222.828125 L 77.304688 222.828125 L 77.304688 224.941406 L 69.949219 224.941406 L 69.949219 229.890625 L 75.367188 229.890625 L 75.367188 232.003906 L 69.949219 232.003906 L 69.949219 236.933594 L 77.304688 236.933594 L 77.304688 239.046875 L 67.441406 239.046875 " fill-opacity="1" fill-rule="nonzero"/></g><g clip-path="url(#83f8ae3b42)"><path fill="#ffffff" d="M 85.085938 226.140625 L 82.847656 233.039062 L 87.136719 233.039062 Z M 88.921875 239.046875 L 87.75 235.152344 L 82.132812 235.152344 L 80.882812 239.046875 L 78.207031 239.046875 L 83.714844 222.828125 L 86.445312 222.828125 L 91.628906 239.046875 L 88.921875 239.046875 " fill-opacity="1" fill-rule="nonzero"/></g><g clip-path="url(#f618bdb4f9)"><path fill="#ffffff" d="M 99.84375 236.933594 C 100.347656 236.933594 100.757812 236.863281 101.070312 236.726562 C 101.382812 236.589844 101.636719 236.382812 101.828125 236.109375 C 101.941406 235.960938 102.03125 235.78125 102.105469 235.574219 C 102.179688 235.367188 102.242188 235.074219 102.296875 234.695312 C 102.347656 234.316406 102.386719 233.828125 102.40625 233.226562 C 102.429688 232.628906 102.441406 231.863281 102.441406 230.9375 C 102.441406 230.007812 102.429688 229.246094 102.40625 228.644531 C 102.386719 228.042969 102.347656 227.554688 102.296875 227.175781 C 102.242188 226.796875 102.179688 226.503906 102.105469 226.296875 C 102.03125 226.089844 101.941406 225.910156 101.828125 225.761719 C 101.636719 225.488281 101.382812 225.28125 101.070312 225.144531 C 100.757812 225.007812 100.347656 224.941406 99.84375 224.941406 L 95.84375 224.941406 L 95.84375 236.933594 Z M 93.335938 239.046875 L 93.335938 222.828125 L 99.800781 222.828125 C 100.253906 222.828125 100.667969 222.859375 101.042969 222.921875 C 101.417969 222.984375 101.757812 223.074219 102.066406 223.195312 C 102.375 223.3125 102.65625 223.453125 102.910156 223.617188 C 103.160156 223.78125 103.398438 223.964844 103.613281 224.171875 C 103.878906 224.433594 104.105469 224.753906 104.285156 225.132812 C 104.46875 225.515625 104.613281 225.980469 104.722656 226.523438 C 104.828125 227.070312 104.90625 227.707031 104.953125 228.433594 C 105.003906 229.160156 105.027344 229.996094 105.027344 230.9375 C 105.027344 231.878906 105.003906 232.710938 104.953125 233.4375 C 104.90625 234.167969 104.828125 234.800781 104.722656 235.347656 C 104.613281 235.890625 104.46875 236.359375 104.285156 236.742188 C 104.105469 237.128906 103.878906 237.449219 103.613281 237.699219 C 103.398438 237.90625 103.160156 238.09375 102.910156 238.261719 C 102.65625 238.429688 102.375 238.570312 102.066406 238.683594 C 101.757812 238.800781 101.417969 238.886719 101.042969 238.949219 C 100.667969 239.015625 100.253906 239.046875 99.800781 239.046875 L 93.335938 239.046875 " fill-opacity="1" fill-rule="nonzero"/></g><g clip-path="url(#1976999746)"><path fill="#ffffff" d="M 122.660156 236.019531 C 122.773438 235.871094 122.871094 235.691406 122.957031 235.480469 C 123.042969 235.269531 123.109375 234.976562 123.164062 234.601562 C 123.214844 234.226562 123.253906 233.746094 123.28125 233.160156 C 123.304688 232.574219 123.320312 231.832031 123.320312 230.9375 C 123.320312 230.039062 123.304688 229.292969 123.28125 228.707031 C 123.253906 228.117188 123.214844 227.636719 123.164062 227.265625 C 123.109375 226.894531 123.042969 226.601562 122.957031 226.390625 C 122.871094 226.179688 122.773438 226 122.660156 225.851562 C 122.402344 225.511719 122.042969 225.25 121.582031 225.074219 C 121.121094 224.894531 120.492188 224.804688 119.695312 224.804688 C 118.894531 224.804688 118.265625 224.894531 117.808594 225.074219 C 117.351562 225.25 116.992188 225.511719 116.730469 225.851562 C 116.621094 226 116.519531 226.179688 116.4375 226.390625 C 116.351562 226.601562 116.28125 226.894531 116.226562 227.265625 C 116.167969 227.636719 116.128906 228.117188 116.101562 228.707031 C 116.074219 229.292969 116.0625 230.039062 116.0625 230.9375 C 116.0625 231.832031 116.074219 232.574219 116.101562 233.160156 C 116.128906 233.746094 116.167969 234.226562 116.226562 234.601562 C 116.28125 234.976562 116.351562 235.269531 116.4375 235.480469 C 116.519531 235.691406 116.621094 235.871094 116.730469 236.019531 C 116.992188 236.359375 117.351562 236.621094 117.808594 236.800781 C 118.265625 236.976562 118.894531 237.066406 119.695312 237.066406 C 120.492188 237.066406 121.121094 236.976562 121.582031 236.800781 C 122.042969 236.621094 122.402344 236.359375 122.660156 236.019531 Z M 124.511719 237.699219 C 124.289062 237.929688 124.035156 238.136719 123.75 238.316406 C 123.460938 238.5 123.128906 238.65625 122.746094 238.785156 C 122.363281 238.914062 121.921875 239.011719 121.417969 239.078125 C 120.917969 239.144531 120.34375 239.179688 119.695312 239.179688 C 119.042969 239.179688 118.46875 239.144531 117.96875 239.078125 C 117.472656 239.011719 117.03125 238.914062 116.648438 238.785156 C 116.265625 238.65625 115.929688 238.5 115.644531 238.316406 C 115.359375 238.136719 115.105469 237.929688 114.878906 237.699219 C 114.621094 237.441406 114.402344 237.117188 114.230469 236.730469 C 114.054688 236.347656 113.910156 235.878906 113.800781 235.335938 C 113.6875 234.789062 113.609375 234.15625 113.558594 233.433594 C 113.511719 232.710938 113.488281 231.878906 113.488281 230.9375 C 113.488281 229.996094 113.511719 229.160156 113.558594 228.4375 C 113.609375 227.714844 113.6875 227.082031 113.800781 226.535156 C 113.910156 225.992188 114.054688 225.527344 114.230469 225.140625 C 114.402344 224.753906 114.621094 224.433594 114.878906 224.171875 C 115.105469 223.941406 115.359375 223.738281 115.644531 223.554688 C 115.929688 223.375 116.265625 223.21875 116.648438 223.09375 C 117.03125 222.96875 117.472656 222.867188 117.96875 222.800781 C 118.46875 222.726562 119.042969 222.691406 119.695312 222.691406 C 120.34375 222.691406 120.917969 222.726562 121.417969 222.800781 C 121.921875 222.867188 122.363281 222.96875 122.746094 223.09375 C 123.128906 223.21875 123.460938 223.375 123.75 223.554688 C 124.035156 223.738281 124.289062 223.941406 124.511719 224.171875 C 124.765625 224.433594 124.980469 224.753906 125.160156 225.140625 C 125.335938 225.527344 125.480469 225.992188 125.59375 226.535156 C 125.703125 227.082031 125.785156 227.714844 125.832031 228.4375 C 125.878906 229.160156 125.90625 229.996094 125.90625 230.9375 C 125.90625 231.878906 125.878906 232.710938 125.832031 233.433594 C 125.785156 234.15625 125.703125 234.789062 125.59375 235.335938 C 125.480469 235.878906 125.335938 236.347656 125.160156 236.730469 C 124.980469 237.117188 124.765625 237.441406 124.511719 237.699219 " fill-opacity="1" fill-rule="nonzero"/></g><g clip-path="url(#e43e43d183)"><path fill="#ffffff" d="M 128.871094 239.046875 L 128.871094 222.828125 L 138.734375 222.828125 L 138.734375 224.941406 L 131.378906 224.941406 L 131.378906 229.890625 L 136.796875 229.890625 L 136.796875 232.003906 L 131.378906 232.003906 L 131.378906 239.046875 L 128.871094 239.046875 " fill-opacity="1" fill-rule="nonzero"/></g><g clip-path="url(#a25ff393a7)"><path fill="#ffffff" d="M 157.863281 239.046875 L 155.097656 229.480469 L 152.203125 239.046875 L 149.480469 239.046875 L 145.28125 222.828125 L 147.929688 222.828125 L 150.875 235.609375 L 153.941406 225.828125 L 156.382812 225.828125 L 159.210938 235.464844 L 162.3125 222.828125 L 164.964844 222.828125 L 160.527344 239.046875 L 157.863281 239.046875 " fill-opacity="1" fill-rule="nonzero"/></g><g clip-path="url(#5ff731de79)"><path fill="#ffffff" d="M 175.933594 239.046875 L 175.933594 232.003906 L 169.3125 232.003906 L 169.3125 239.046875 L 166.804688 239.046875 L 166.804688 222.828125 L 169.3125 222.828125 L 169.3125 229.890625 L 175.933594 229.890625 L 175.933594 222.828125 L 178.441406 222.828125 L 178.441406 239.046875 L 175.933594 239.046875 " fill-opacity="1" fill-rule="nonzero"/></g><g clip-path="url(#b8f85c8fac)"><path fill="#ffffff" d="M 187.035156 226.140625 L 184.792969 233.039062 L 189.085938 233.039062 Z M 190.867188 239.046875 L 189.699219 235.152344 L 184.082031 235.152344 L 182.832031 239.046875 L 180.15625 239.046875 L 185.664062 222.828125 L 188.394531 222.828125 L 193.578125 239.046875 L 190.867188 239.046875 " fill-opacity="1" fill-rule="nonzero"/></g><g clip-path="url(#d17233c171)"><path fill="#ffffff" d="M 196.765625 239.046875 L 196.765625 224.941406 L 192.628906 224.941406 L 192.628906 222.828125 L 203.410156 222.828125 L 203.410156 224.941406 L 199.273438 224.941406 L 199.273438 239.046875 L 196.765625 239.046875 " fill-opacity="1" fill-rule="nonzero"/></g><path fill="#ffffff" d="M 204.859375 227.085938 C 205.105469 227.070312 205.304688 227.039062 205.453125 226.988281 C 205.605469 226.933594 205.726562 226.855469 205.8125 226.746094 C 205.894531 226.640625 205.953125 226.496094 205.984375 226.320312 C 206.015625 226.140625 206.027344 225.917969 206.027344 225.652344 L 206.027344 225.175781 L 204.980469 225.175781 L 204.980469 222.828125 L 207.210938 222.828125 L 207.210938 225.394531 C 207.210938 225.855469 207.175781 226.238281 207.105469 226.546875 C 207.035156 226.855469 206.917969 227.109375 206.757812 227.308594 C 206.597656 227.511719 206.390625 227.667969 206.136719 227.789062 C 205.878906 227.90625 205.5625 228 205.179688 228.066406 L 204.859375 227.085938 " fill-opacity="1" fill-rule="nonzero"/><g clip-path="url(#c4811533a9)"><path fill="#ffffff" d="M 217.71875 226.808594 C 217.707031 226.59375 217.667969 226.367188 217.605469 226.128906 C 217.542969 225.894531 217.410156 225.675781 217.210938 225.480469 C 217.007812 225.28125 216.714844 225.121094 216.328125 224.996094 C 215.941406 224.871094 215.410156 224.804688 214.734375 224.804688 C 213.679688 224.804688 212.871094 224.988281 212.308594 225.351562 C 211.75 225.714844 211.46875 226.292969 211.46875 227.085938 C 211.46875 227.496094 211.566406 227.820312 211.761719 228.0625 C 211.960938 228.300781 212.226562 228.492188 212.5625 228.628906 C 212.894531 228.765625 213.28125 228.867188 213.71875 228.933594 C 214.15625 229 214.621094 229.058594 215.101562 229.113281 C 215.480469 229.15625 215.878906 229.210938 216.296875 229.277344 C 216.710938 229.34375 217.117188 229.441406 217.515625 229.566406 C 217.910156 229.695312 218.292969 229.859375 218.652344 230.066406 C 219.011719 230.277344 219.328125 230.546875 219.601562 230.878906 C 219.871094 231.214844 220.085938 231.621094 220.246094 232.105469 C 220.40625 232.585938 220.484375 233.160156 220.484375 233.828125 C 220.484375 234.703125 220.351562 235.476562 220.078125 236.140625 C 219.808594 236.808594 219.421875 237.367188 218.914062 237.816406 C 218.40625 238.265625 217.792969 238.605469 217.070312 238.835938 C 216.34375 239.0625 215.53125 239.179688 214.625 239.179688 C 213.703125 239.179688 212.921875 239.066406 212.28125 238.839844 C 211.640625 238.613281 211.113281 238.328125 210.695312 237.984375 C 210.273438 237.636719 209.945312 237.261719 209.707031 236.847656 C 209.46875 236.4375 209.292969 236.039062 209.183594 235.65625 C 209.070312 235.277344 209.003906 234.9375 208.976562 234.644531 C 208.953125 234.351562 208.9375 234.15625 208.9375 234.050781 L 211.421875 234.050781 C 211.421875 234.40625 211.476562 234.761719 211.582031 235.117188 C 211.683594 235.476562 211.859375 235.796875 212.105469 236.085938 C 212.347656 236.375 212.675781 236.609375 213.085938 236.792969 C 213.492188 236.976562 214.003906 237.066406 214.625 237.066406 C 215.128906 237.066406 215.582031 237.003906 215.988281 236.875 C 216.394531 236.75 216.738281 236.5625 217.023438 236.308594 C 217.3125 236.058594 217.53125 235.742188 217.683594 235.363281 C 217.835938 234.984375 217.910156 234.546875 217.910156 234.050781 C 217.910156 233.53125 217.824219 233.121094 217.644531 232.816406 C 217.464844 232.511719 217.199219 232.273438 216.851562 232.105469 C 216.503906 231.933594 216.066406 231.804688 215.542969 231.714844 C 215.019531 231.625 214.40625 231.53125 213.707031 231.4375 C 213.105469 231.347656 212.519531 231.234375 211.953125 231.089844 C 211.382812 230.949219 210.878906 230.734375 210.4375 230.445312 C 209.996094 230.15625 209.636719 229.769531 209.367188 229.285156 C 209.09375 228.796875 208.960938 228.167969 208.960938 227.398438 C 208.960938 227.242188 208.976562 227.015625 209.011719 226.71875 C 209.042969 226.421875 209.121094 226.101562 209.246094 225.75 C 209.367188 225.402344 209.546875 225.046875 209.785156 224.683594 C 210.023438 224.320312 210.347656 223.992188 210.765625 223.699219 C 211.183594 223.40625 211.699219 223.164062 212.320312 222.976562 C 212.941406 222.789062 213.695312 222.691406 214.578125 222.691406 C 215.34375 222.691406 215.984375 222.734375 216.496094 222.816406 C 217.007812 222.898438 217.433594 223.007812 217.777344 223.144531 C 218.117188 223.28125 218.394531 223.433594 218.601562 223.605469 C 218.808594 223.777344 218.996094 223.949219 219.160156 224.128906 C 219.515625 224.507812 219.769531 224.925781 219.921875 225.390625 C 220.074219 225.855469 220.152344 226.328125 220.152344 226.808594 L 217.71875 226.808594 " fill-opacity="1" fill-rule="nonzero"/></g><g clip-path="url(#9f6eab3cd4)"><path fill="#ffffff" d="M 234.230469 231.148438 C 234.554688 231.148438 234.898438 231.097656 235.257812 230.992188 C 235.613281 230.886719 235.9375 230.714844 236.234375 230.480469 C 236.535156 230.242188 236.78125 229.921875 236.972656 229.527344 C 237.167969 229.128906 237.261719 228.636719 237.261719 228.050781 C 237.261719 227.625 237.203125 227.226562 237.089844 226.851562 C 236.972656 226.476562 236.808594 226.144531 236.589844 225.859375 C 236.367188 225.574219 236.097656 225.347656 235.78125 225.183594 C 235.460938 225.023438 235.09375 224.941406 234.6875 224.941406 L 231.296875 224.941406 L 231.296875 231.148438 Z M 228.792969 239.046875 L 228.792969 222.828125 L 235 222.828125 C 235.757812 222.828125 236.433594 222.949219 237.03125 223.195312 C 237.632812 223.4375 238.136719 223.789062 238.554688 224.246094 C 238.972656 224.699219 239.289062 225.25 239.507812 225.890625 C 239.726562 226.53125 239.835938 227.25 239.835938 228.042969 C 239.835938 228.835938 239.714844 229.554688 239.46875 230.195312 C 239.222656 230.835938 238.886719 231.386719 238.457031 231.835938 C 238.023438 232.289062 237.511719 232.640625 236.921875 232.886719 C 236.332031 233.136719 235.691406 233.261719 235 233.261719 L 231.296875 233.261719 L 231.296875 239.046875 L 228.792969 239.046875 " fill-opacity="1" fill-rule="nonzero"/></g><g clip-path="url(#139dd4a9d3)"><path fill="#ffffff" d="M 251.117188 236.019531 C 251.230469 235.871094 251.328125 235.691406 251.414062 235.480469 C 251.5 235.269531 251.566406 234.976562 251.621094 234.601562 C 251.671875 234.226562 251.710938 233.746094 251.734375 233.160156 C 251.761719 232.574219 251.777344 231.832031 251.777344 230.9375 C 251.777344 230.039062 251.761719 229.292969 251.734375 228.707031 C 251.710938 228.117188 251.671875 227.636719 251.621094 227.265625 C 251.566406 226.894531 251.5 226.601562 251.414062 226.390625 C 251.328125 226.179688 251.230469 226 251.117188 225.851562 C 250.855469 225.511719 250.496094 225.25 250.035156 225.074219 C 249.574219 224.894531 248.949219 224.804688 248.152344 224.804688 C 247.347656 224.804688 246.71875 224.894531 246.261719 225.074219 C 245.808594 225.25 245.449219 225.511719 245.1875 225.851562 C 245.078125 226 244.976562 226.179688 244.890625 226.390625 C 244.804688 226.601562 244.734375 226.894531 244.679688 227.265625 C 244.625 227.636719 244.582031 228.117188 244.558594 228.707031 C 244.53125 229.292969 244.519531 230.039062 244.519531 230.9375 C 244.519531 231.832031 244.53125 232.574219 244.558594 233.160156 C 244.582031 233.746094 244.625 234.226562 244.679688 234.601562 C 244.734375 234.976562 244.804688 235.269531 244.890625 235.480469 C 244.976562 235.691406 245.078125 235.871094 245.1875 236.019531 C 245.449219 236.359375 245.808594 236.621094 246.261719 236.800781 C 246.71875 236.976562 247.347656 237.066406 248.152344 237.066406 C 248.949219 237.066406 249.574219 236.976562 250.035156 236.800781 C 250.496094 236.621094 250.855469 236.359375 251.117188 236.019531 Z M 252.96875 237.699219 C 252.746094 237.929688 252.492188 238.136719 252.203125 238.316406 C 251.917969 238.5 251.585938 238.65625 251.199219 238.785156 C 250.820312 238.914062 250.375 239.011719 249.875 239.078125 C 249.371094 239.144531 248.800781 239.179688 248.152344 239.179688 C 247.5 239.179688 246.921875 239.144531 246.425781 239.078125 C 245.925781 239.011719 245.488281 238.914062 245.105469 238.785156 C 244.722656 238.65625 244.386719 238.5 244.101562 238.316406 C 243.8125 238.136719 243.558594 237.929688 243.335938 237.699219 C 243.078125 237.441406 242.859375 237.117188 242.683594 236.730469 C 242.511719 236.347656 242.367188 235.878906 242.257812 235.335938 C 242.144531 234.789062 242.066406 234.15625 242.015625 233.433594 C 241.96875 232.710938 241.945312 231.878906 241.945312 230.9375 C 241.945312 229.996094 241.96875 229.160156 242.015625 228.4375 C 242.066406 227.714844 242.144531 227.082031 242.257812 226.535156 C 242.367188 225.992188 242.511719 225.527344 242.683594 225.140625 C 242.859375 224.753906 243.078125 224.433594 243.335938 224.171875 C 243.558594 223.941406 243.8125 223.738281 244.101562 223.554688 C 244.386719 223.375 244.722656 223.21875 245.105469 223.09375 C 245.488281 222.96875 245.925781 222.867188 246.425781 222.800781 C 246.921875 222.726562 247.5 222.691406 248.152344 222.691406 C 248.800781 222.691406 249.371094 222.726562 249.875 222.800781 C 250.375 222.867188 250.820312 222.96875 251.199219 223.09375 C 251.585938 223.21875 251.917969 223.375 252.203125 223.554688 C 252.492188 223.738281 252.746094 223.941406 252.96875 224.171875 C 253.222656 224.433594 253.4375 224.753906 253.613281 225.140625 C 253.792969 225.527344 253.9375 225.992188 254.050781 226.535156 C 254.160156 227.082031 254.242188 227.714844 254.289062 228.4375 C 254.335938 229.160156 254.363281 229.996094 254.363281 230.9375 C 254.363281 231.878906 254.335938 232.710938 254.289062 233.433594 C 254.242188 234.15625 254.160156 234.789062 254.050781 235.335938 C 253.9375 235.878906 253.792969 236.347656 253.613281 236.730469 C 253.4375 237.117188 253.222656 237.441406 252.96875 237.699219 " fill-opacity="1" fill-rule="nonzero"/></g><g clip-path="url(#aab370f2f4)"><path fill="#ffffff" d="M 265.539062 226.808594 C 265.527344 226.59375 265.488281 226.367188 265.421875 226.128906 C 265.359375 225.894531 265.230469 225.675781 265.027344 225.480469 C 264.828125 225.28125 264.535156 225.121094 264.148438 224.996094 C 263.761719 224.871094 263.230469 224.804688 262.554688 224.804688 C 261.5 224.804688 260.691406 224.988281 260.128906 225.351562 C 259.566406 225.714844 259.285156 226.292969 259.285156 227.085938 C 259.285156 227.496094 259.386719 227.820312 259.582031 228.0625 C 259.78125 228.300781 260.046875 228.492188 260.378906 228.628906 C 260.714844 228.765625 261.101562 228.867188 261.539062 228.933594 C 261.976562 229 262.4375 229.058594 262.921875 229.113281 C 263.300781 229.15625 263.699219 229.210938 264.113281 229.277344 C 264.53125 229.34375 264.9375 229.441406 265.335938 229.566406 C 265.730469 229.695312 266.109375 229.859375 266.472656 230.066406 C 266.832031 230.277344 267.148438 230.546875 267.417969 230.878906 C 267.691406 231.214844 267.90625 231.621094 268.066406 232.105469 C 268.226562 232.585938 268.304688 233.160156 268.304688 233.828125 C 268.304688 234.703125 268.171875 235.476562 267.898438 236.140625 C 267.628906 236.808594 267.238281 237.367188 266.734375 237.816406 C 266.226562 238.265625 265.613281 238.605469 264.890625 238.835938 C 264.164062 239.0625 263.347656 239.179688 262.441406 239.179688 C 261.519531 239.179688 260.742188 239.066406 260.101562 238.839844 C 259.460938 238.613281 258.933594 238.328125 258.515625 237.984375 C 258.09375 237.636719 257.765625 237.261719 257.527344 236.847656 C 257.289062 236.4375 257.113281 236.039062 257.003906 235.65625 C 256.890625 235.277344 256.824219 234.9375 256.796875 234.644531 C 256.769531 234.351562 256.757812 234.15625 256.757812 234.050781 L 259.242188 234.050781 C 259.242188 234.40625 259.296875 234.761719 259.398438 235.117188 C 259.503906 235.476562 259.675781 235.796875 259.921875 236.085938 C 260.167969 236.375 260.496094 236.609375 260.90625 236.792969 C 261.3125 236.976562 261.824219 237.066406 262.441406 237.066406 C 262.945312 237.066406 263.402344 237.003906 263.808594 236.875 C 264.210938 236.75 264.558594 236.5625 264.84375 236.308594 C 265.132812 236.058594 265.351562 235.742188 265.503906 235.363281 C 265.65625 234.984375 265.730469 234.546875 265.730469 234.050781 C 265.730469 233.53125 265.640625 233.121094 265.464844 232.816406 C 265.285156 232.511719 265.019531 232.273438 264.671875 232.105469 C 264.320312 231.933594 263.886719 231.804688 263.363281 231.714844 C 262.835938 231.625 262.226562 231.53125 261.527344 231.4375 C 260.925781 231.347656 260.339844 231.234375 259.773438 231.089844 C 259.203125 230.949219 258.699219 230.734375 258.257812 230.445312 C 257.816406 230.15625 257.457031 229.769531 257.1875 229.285156 C 256.914062 228.796875 256.78125 228.167969 256.78125 227.398438 C 256.78125 227.242188 256.796875 227.015625 256.828125 226.71875 C 256.863281 226.421875 256.941406 226.101562 257.0625 225.75 C 257.1875 225.402344 257.367188 225.046875 257.605469 224.683594 C 257.84375 224.320312 258.167969 223.992188 258.585938 223.699219 C 259 223.40625 259.519531 223.164062 260.140625 222.976562 C 260.761719 222.789062 261.511719 222.691406 262.398438 222.691406 C 263.164062 222.691406 263.800781 222.734375 264.316406 222.816406 C 264.828125 222.898438 265.253906 223.007812 265.597656 223.144531 C 265.9375 223.28125 266.214844 223.433594 266.421875 223.605469 C 266.628906 223.777344 266.816406 223.949219 266.976562 224.128906 C 267.335938 224.507812 267.589844 224.925781 267.742188 225.390625 C 267.894531 225.855469 267.96875 226.328125 267.96875 226.808594 L 265.539062 226.808594 " fill-opacity="1" fill-rule="nonzero"/></g><g clip-path="url(#b3eb03cecf)"><path fill="#ffffff" d="M 279.117188 226.808594 C 279.101562 226.59375 279.066406 226.367188 279 226.128906 C 278.9375 225.894531 278.804688 225.675781 278.605469 225.480469 C 278.40625 225.28125 278.109375 225.121094 277.722656 224.996094 C 277.335938 224.871094 276.808594 224.804688 276.128906 224.804688 C 275.074219 224.804688 274.265625 224.988281 273.707031 225.351562 C 273.144531 225.714844 272.863281 226.292969 272.863281 227.085938 C 272.863281 227.496094 272.960938 227.820312 273.160156 228.0625 C 273.359375 228.300781 273.621094 228.492188 273.957031 228.628906 C 274.292969 228.765625 274.679688 228.867188 275.117188 228.933594 C 275.554688 229 276.015625 229.058594 276.5 229.113281 C 276.878906 229.15625 277.273438 229.210938 277.691406 229.277344 C 278.105469 229.34375 278.515625 229.441406 278.910156 229.566406 C 279.308594 229.695312 279.6875 229.859375 280.046875 230.066406 C 280.410156 230.277344 280.726562 230.546875 280.996094 230.878906 C 281.269531 231.214844 281.484375 231.621094 281.640625 232.105469 C 281.804688 232.585938 281.882812 233.160156 281.882812 233.828125 C 281.882812 234.703125 281.746094 235.476562 281.472656 236.140625 C 281.203125 236.808594 280.816406 237.367188 280.3125 237.816406 C 279.804688 238.265625 279.191406 238.605469 278.464844 238.835938 C 277.742188 239.0625 276.925781 239.179688 276.019531 239.179688 C 275.097656 239.179688 274.316406 239.066406 273.679688 238.839844 C 273.039062 238.613281 272.507812 238.328125 272.089844 237.984375 C 271.667969 237.636719 271.339844 237.261719 271.101562 236.847656 C 270.867188 236.4375 270.691406 236.039062 270.578125 235.65625 C 270.46875 235.277344 270.398438 234.9375 270.375 234.644531 C 270.347656 234.351562 270.332031 234.15625 270.332031 234.050781 L 272.820312 234.050781 C 272.820312 234.40625 272.871094 234.761719 272.976562 235.117188 C 273.082031 235.476562 273.253906 235.796875 273.5 236.085938 C 273.746094 236.375 274.074219 236.609375 274.480469 236.792969 C 274.890625 236.976562 275.402344 237.066406 276.019531 237.066406 C 276.523438 237.066406 276.980469 237.003906 277.386719 236.875 C 277.789062 236.75 278.132812 236.5625 278.421875 236.308594 C 278.707031 236.058594 278.925781 235.742188 279.078125 235.363281 C 279.230469 234.984375 279.308594 234.546875 279.308594 234.050781 C 279.308594 233.53125 279.21875 233.121094 279.039062 232.816406 C 278.859375 232.511719 278.597656 232.273438 278.25 232.105469 C 277.898438 231.933594 277.460938 231.804688 276.9375 231.714844 C 276.414062 231.625 275.804688 231.53125 275.105469 231.4375 C 274.503906 231.347656 273.917969 231.234375 273.347656 231.089844 C 272.78125 230.949219 272.273438 230.734375 271.832031 230.445312 C 271.390625 230.15625 271.035156 229.769531 270.761719 229.285156 C 270.492188 228.796875 270.355469 228.167969 270.355469 227.398438 C 270.355469 227.242188 270.375 227.015625 270.40625 226.71875 C 270.441406 226.421875 270.519531 226.101562 270.640625 225.75 C 270.761719 225.402344 270.945312 225.046875 271.183594 224.683594 C 271.417969 224.320312 271.746094 223.992188 272.160156 223.699219 C 272.578125 223.40625 273.097656 223.164062 273.714844 222.976562 C 274.335938 222.789062 275.089844 222.691406 275.972656 222.691406 C 276.742188 222.691406 277.378906 222.734375 277.890625 222.816406 C 278.40625 222.898438 278.832031 223.007812 279.175781 223.144531 C 279.515625 223.28125 279.789062 223.433594 280 223.605469 C 280.207031 223.777344 280.390625 223.949219 280.554688 224.128906 C 280.910156 224.507812 281.167969 224.925781 281.320312 225.390625 C 281.472656 225.855469 281.546875 226.328125 281.546875 226.808594 L 279.117188 226.808594 " fill-opacity="1" fill-rule="nonzero"/></g><g clip-path="url(#92f427b43c)"><path fill="#ffffff" d="M 284.523438 239.046875 L 287.03125 239.046875 L 287.03125 222.828125 L 284.523438 222.828125 Z M 284.523438 239.046875 " fill-opacity="1" fill-rule="nonzero"/></g><g clip-path="url(#4dff595b84)"><path fill="#ffffff" d="M 296.808594 236.933594 C 297.195312 236.933594 297.535156 236.855469 297.832031 236.699219 C 298.132812 236.542969 298.378906 236.34375 298.582031 236.097656 C 298.78125 235.851562 298.929688 235.582031 299.03125 235.285156 C 299.132812 234.988281 299.183594 234.699219 299.183594 234.417969 C 299.183594 234.039062 299.128906 233.703125 299.019531 233.40625 C 298.914062 233.109375 298.761719 232.855469 298.5625 232.648438 C 298.367188 232.441406 298.132812 232.28125 297.855469 232.171875 C 297.582031 232.058594 297.277344 232.003906 296.941406 232.003906 L 292.761719 232.003906 L 292.761719 236.933594 Z M 296.261719 229.890625 C 296.753906 229.890625 297.167969 229.808594 297.511719 229.644531 C 297.851562 229.484375 298.128906 229.277344 298.339844 229.035156 C 298.550781 228.789062 298.707031 228.523438 298.804688 228.238281 C 298.898438 227.953125 298.949219 227.691406 298.949219 227.453125 C 298.949219 226.570312 298.695312 225.933594 298.195312 225.535156 C 297.695312 225.136719 296.972656 224.941406 296.027344 224.941406 L 292.761719 224.941406 L 292.761719 229.890625 Z M 290.253906 239.046875 L 290.253906 222.828125 L 296.851562 222.828125 C 297.566406 222.828125 298.175781 222.914062 298.679688 223.09375 C 299.1875 223.273438 299.613281 223.496094 299.960938 223.773438 C 300.3125 224.046875 300.589844 224.351562 300.792969 224.691406 C 300.996094 225.027344 301.15625 225.355469 301.269531 225.675781 C 301.378906 225.992188 301.449219 226.28125 301.484375 226.542969 C 301.515625 226.800781 301.535156 226.992188 301.535156 227.109375 C 301.535156 227.390625 301.507812 227.695312 301.449219 228.019531 C 301.394531 228.347656 301.289062 228.675781 301.136719 229 C 300.988281 229.328125 300.78125 229.640625 300.519531 229.941406 C 300.261719 230.242188 299.929688 230.503906 299.527344 230.726562 C 300.265625 231.074219 300.816406 231.558594 301.195312 232.175781 C 301.570312 232.796875 301.757812 233.507812 301.757812 234.308594 C 301.757812 234.484375 301.742188 234.726562 301.710938 235.03125 C 301.683594 235.335938 301.613281 235.660156 301.5 236.007812 C 301.390625 236.359375 301.226562 236.714844 301.015625 237.078125 C 300.804688 237.441406 300.515625 237.765625 300.152344 238.054688 C 299.789062 238.34375 299.335938 238.582031 298.796875 238.769531 C 298.257812 238.953125 297.609375 239.046875 296.851562 239.046875 L 290.253906 239.046875 " fill-opacity="1" fill-rule="nonzero"/></g><g clip-path="url(#3b14150ff1)"><path fill="#ffffff" d="M 304.355469 239.046875 L 304.355469 222.828125 L 306.863281 222.828125 L 306.863281 236.933594 L 313.195312 236.933594 L 313.195312 239.046875 L 304.355469 239.046875 " fill-opacity="1" fill-rule="nonzero"/></g><g clip-path="url(#225c50c1e1)"><path fill="#ffffff" d="M 315.167969 239.046875 L 315.167969 222.828125 L 325.03125 222.828125 L 325.03125 224.941406 L 317.675781 224.941406 L 317.675781 229.890625 L 323.09375 229.890625 L 323.09375 232.003906 L 317.675781 232.003906 L 317.675781 236.933594 L 325.03125 236.933594 L 325.03125 239.046875 L 315.167969 239.046875 " fill-opacity="1" fill-rule="nonzero"/></g><path fill="#ffffff" d="M 329.351562 230.601562 L 329.351562 223.824219 L 327.367188 223.824219 L 327.367188 222.808594 L 332.546875 222.808594 L 332.546875 223.824219 L 330.558594 223.824219 L 330.558594 230.601562 L 329.351562 230.601562 " fill-opacity="1" fill-rule="nonzero"/><g clip-path="url(#4369b1f8b3)"><path fill="#ffffff" d="M 339.347656 230.601562 L 339.347656 224.898438 L 337.429688 228.847656 L 336.460938 228.847656 L 334.597656 224.953125 L 334.597656 230.601562 L 333.457031 230.601562 L 333.457031 222.808594 L 334.796875 222.808594 L 336.980469 227.382812 L 339.171875 222.808594 L 340.488281 222.808594 L 340.488281 230.601562 L 339.347656 230.601562 " fill-opacity="1" fill-rule="nonzero"/></g><g clip-path="url(#6b918ba68a)"><path fill="#ffffff" d="M 38.378906 118.550781 L 118.3125 118.550781 L 118.3125 198.753906 L 38.378906 198.753906 Z M 54.832031 131.035156 L 54.832031 188.578125 L 104.949219 159.167969 Z M 145.214844 197.902344 L 131.421875 197.902344 L 131.421875 162.15625 L 145.300781 162.15625 C 155.582031 162.15625 161.75 170.28125 161.75 180.625 C 161.75 190.972656 156.269531 197.902344 145.214844 197.902344 M 157.464844 154.039062 L 154.726562 146.085938 L 141.53125 146.085938 L 139.128906 154.039062 L 131.933594 154.039062 L 144.015625 118.214844 L 151.296875 118.214844 L 164.832031 154.039062 Z M 144.617188 168.230469 L 138.960938 168.230469 L 138.960938 192.339844 L 145.046875 192.339844 C 153.097656 192.339844 154.296875 185.5 154.210938 180.285156 C 154.210938 176.179688 152.242188 168.230469 144.617188 168.230469 M 152.242188 138.902344 L 147.699219 125.738281 L 143.675781 138.820312 L 143.414062 141.039062 L 152.328125 141.039062 C 152.328125 139.84375 152.414062 139.589844 152.242188 138.902344 M 164.324219 197.902344 L 164.324219 162.15625 L 190.710938 162.15625 L 190.710938 168.144531 L 171.515625 168.144531 L 171.515625 175.753906 L 188.480469 175.753906 L 188.480469 182.253906 L 171.601562 182.253906 L 171.601562 191.828125 L 191.308594 191.828125 L 191.308594 197.902344 Z M 189.164062 154.039062 L 173.402344 129.839844 L 173.402344 154.039062 L 166.207031 154.039062 L 166.207031 118.214844 L 173.574219 118.214844 L 188.734375 142.066406 L 188.734375 118.214844 L 195.933594 118.214844 L 195.933594 154.039062 Z M 211.695312 197.816406 L 204.84375 197.816406 L 193.023438 164.042969 L 193.023438 162.15625 L 200.214844 162.15625 L 208.269531 188.320312 L 216.152344 162.246094 L 223.175781 162.246094 L 223.175781 164.125 Z M 223.09375 154.039062 L 220.347656 146.085938 L 207.15625 146.085938 L 204.761719 154.039062 L 197.5625 154.039062 L 209.640625 118.214844 L 216.925781 118.214844 L 230.457031 154.039062 Z M 217.949219 139.074219 L 213.410156 125.566406 L 208.867188 139.074219 L 208.867188 141.039062 L 218.121094 141.039062 C 218.121094 139.84375 218.121094 139.671875 217.949219 139.074219 M 225.40625 162.246094 L 233.027344 162.246094 L 233.027344 197.816406 L 225.40625 197.816406 Z M 232 154.039062 L 232 118.214844 L 239.113281 118.214844 L 239.113281 147.96875 L 255.132812 147.96875 L 255.132812 154.039062 Z M 251.964844 198.753906 C 232.347656 199.183594 228.914062 161.390625 252.046875 161.644531 C 264.898438 161.644531 267.128906 172.332031 267.640625 173.957031 L 260.527344 173.957031 C 259.414062 171.738281 256.5 167.460938 252.90625 167.203125 C 240.226562 166.351562 240.226562 193.109375 252.90625 193.109375 C 258.988281 193.109375 260.445312 187.039062 260.785156 186.359375 L 267.726562 186.359375 C 267.726562 186.441406 266.867188 198.582031 251.964844 198.753906 M 271.667969 154.636719 C 248.621094 154.636719 249.480469 117.527344 271.925781 117.699219 C 293.601562 117.871094 294.199219 154.636719 271.667969 154.636719 M 271.410156 148.652344 C 284.6875 148.734375 284.6875 123.941406 271.667969 123.769531 C 258.734375 123.683594 258.300781 148.566406 271.410156 148.652344 M 269.011719 197.902344 L 269.011719 162.15625 L 294.453125 162.15625 L 294.453125 168.660156 L 275.867188 168.660156 L 275.867188 176.011719 L 292.3125 176.011719 L 292.3125 182.421875 L 275.949219 182.421875 L 275.949219 191.828125 L 295.3125 191.828125 L 295.3125 197.902344 Z M 317.332031 153.179688 L 317.332031 149.765625 C 316.5625 150.445312 313.132812 154.808594 306.707031 154.636719 C 284.777344 154.121094 284.6875 118.214844 307.738281 117.785156 C 313.300781 117.785156 317.929688 121.292969 319.730469 123.769531 C 321.875 126.59375 322.042969 128.988281 322.128906 129.585938 L 316.046875 129.585938 C 314.675781 127.359375 312.53125 123.601562 307.480469 123.601562 C 294.113281 123.429688 293.261719 148.652344 307.394531 148.90625 C 313.648438 149.074219 316.816406 142.582031 316.816406 142.496094 L 316.816406 140.613281 L 308.25 140.613281 L 308.25 135.058594 L 322.984375 135.058594 L 322.984375 153.179688 Z M 310.648438 198.839844 C 295.484375 198.839844 295.65625 187.210938 295.65625 187.210938 L 302.507812 187.210938 C 302.507812 187.210938 301.992188 192.855469 309.625 193.367188 C 311.507812 193.453125 317.675781 192.683594 317.675781 188.40625 C 317.675781 183.449219 311.417969 183.703125 307.480469 182.59375 C 303.535156 181.566406 296.082031 179.855469 296.082031 172.933594 C 296.082031 166.863281 301.050781 161.644531 310.648438 161.644531 C 323.5 161.734375 323.414062 171.652344 323.5 172.25 L 316.90625 172.25 C 316.472656 170.792969 316.046875 167.289062 310.308594 167.121094 C 307.480469 167.121094 303.195312 168.0625 303.195312 171.390625 C 303.195312 175.585938 307.992188 176.179688 313.046875 176.949219 C 320.675781 178.40625 325.042969 180.714844 324.785156 187.722656 C 324.613281 193.878906 319.128906 198.839844 310.648438 198.839844 " fill-opacity="1" fill-rule="nonzero"/></g></svg>